<svg width="36" height="35" viewBox="0 0 36 35" fill="none" xmlns="http://www.w3.org/2000/svg">
<rect x="0.0625" width="35.1458" height="35" rx="7" fill="black"/>
<g clip-path="url(#clip0)">
<path d="M25.0221 19.6598H22.0229C21.7175 19.6598 21.4675 19.9087 21.4675 20.2129V22.2593C21.4675 22.5636 21.7175 22.8124 22.0229 22.8124H25.0221C25.3276 22.8124 25.5775 22.5636 25.5775 22.2593V20.2129C25.5775 19.9087 25.3276 19.6598 25.0221 19.6598ZM24.4667 21.7063H22.5783V20.766H24.4667V21.7063Z" fill="white"/>
<path d="M13.2477 19.6598H10.2485C9.94305 19.6598 9.69312 19.9087 9.69312 20.2129V22.2593C9.69312 22.5636 9.94305 22.8124 10.2485 22.8124H13.2477C13.5532 22.8124 13.8031 22.5636 13.8031 22.2593V20.2129C13.8031 19.9087 13.5532 19.6598 13.2477 19.6598ZM12.6923 21.7063H10.8039V20.766H12.6923V21.7063Z" fill="white"/>
<path d="M19.857 21.5957H15.4138C15.1083 21.5957 14.8584 21.8446 14.8584 22.1488C14.8584 22.453 15.1083 22.7019 15.4138 22.7019H19.857C20.1625 22.7019 20.4124 22.453 20.4124 22.1488C20.4124 21.8446 20.1625 21.5957 19.857 21.5957Z" fill="white"/>
<path d="M19.857 20.047H15.4138C15.1083 20.047 14.8584 20.2959 14.8584 20.6001C14.8584 20.9043 15.1083 21.1532 15.4138 21.1532H19.857C20.1625 21.1532 20.4124 20.9043 20.4124 20.6001C20.4124 20.2959 20.1625 20.047 19.857 20.047Z" fill="white"/>
<path d="M28.7489 15.235H27.4104V9.21731C27.4104 7.96731 26.3996 6.94961 25.1444 6.94408L10.1263 6.87771C8.87665 6.87218 7.86026 7.87881 7.85471 9.12328C7.85471 9.13435 7.85471 9.13988 7.85471 9.15094V15.235H6.51619C5.73863 15.235 5.08325 15.86 5.08325 16.6399V18.36C5.08325 19.1399 5.73863 19.7649 6.52174 19.7649H7.86026V23.3932C7.85471 24.2007 8.27681 24.9529 8.97107 25.3678V26.7118C8.97107 27.4916 9.63199 28.1166 10.4151 28.1166H12.2757C13.0588 28.1222 13.692 27.4916 13.692 26.7173C13.692 26.7173 13.692 26.7173 13.692 26.7118V25.6885H21.5787V26.7173C21.5787 27.4972 22.2118 28.1222 22.995 28.1222C22.995 28.1222 22.995 28.1222 23.0005 28.1222H24.8556C25.6387 28.1222 26.2996 27.4972 26.2996 26.7173V25.3733C26.9939 24.9585 27.416 24.2062 27.4104 23.3987V19.7704H28.7489C29.532 19.7704 30.1874 19.1454 30.1874 18.3655V16.6399C30.1874 15.86 29.532 15.235 28.7489 15.235ZM7.86026 18.6642H6.52174C6.34957 18.6697 6.20516 18.537 6.19406 18.3655V16.6399C6.20516 16.4684 6.34957 16.3357 6.52174 16.3412H7.86026V18.6642ZM8.96551 9.73722V9.15094C8.96551 8.8412 9.0877 8.54253 9.30431 8.32682C9.52091 8.11112 9.81528 7.98943 10.1207 7.98943H10.1263L25.1388 8.05581C25.7831 8.06134 26.2996 8.58125 26.2941 9.21731V9.81466L8.96551 9.73722ZM12.5812 26.7173C12.5812 26.8832 12.4479 27.016 12.2813 27.016H12.2757H10.4151C10.2429 27.016 10.0819 26.8888 10.0819 26.7173V25.672C10.1374 25.672 10.1152 25.6885 10.1263 25.6885H12.5812V26.7173ZM25.1888 26.7173C25.1888 26.8888 25.0277 27.016 24.8556 27.016H22.995C22.8283 27.0215 22.6895 26.8888 22.6895 26.7228V26.7173V25.6885H25.1444C25.1499 25.6885 25.1333 25.672 25.1888 25.672V26.7173ZM26.2996 23.3932C26.2996 24.0403 25.7942 24.5824 25.1444 24.5824H10.1263C9.48204 24.5824 8.97107 24.0403 8.97107 23.3987V17.4419L26.2996 17.5193V23.3932ZM11.4315 16.3467C11.7592 15.4175 12.7811 14.9363 13.7142 15.2627C14.2307 15.4452 14.6306 15.8489 14.8083 16.3633L11.4315 16.3467ZM26.2996 16.4131L15.9525 16.3689C15.6414 14.8091 14.1196 13.8025 12.5534 14.1122C11.4204 14.3335 10.5262 15.2129 10.2929 16.3412L8.97107 16.3357V10.8434L26.2996 10.9208V16.4131ZM29.0766 18.3655C29.0655 18.537 28.9211 18.6697 28.7489 18.6642H27.4104V16.3412H28.7489C28.9211 16.3357 29.0655 16.4684 29.0766 16.6399V18.3655Z" fill="white"/>
</g>
<defs>
<clipPath id="clip0">
<rect x="5.08325" y="5" width="25.1042" height="25" rx="7" fill="white"/>
</clipPath>
</defs>
</svg>
